# 3ds Max Wavefront OBJ Exporter v0.97b - (c)2007 guruware
# File Created: 15.01.2017 02:50:59

#
# object Box001
#

v  -5.0173 -0.0173 5.0173
v  -5.0212 -0.0212 4.7404
v  -4.7630 -0.0300 4.7404
v  -4.7630 -0.0212 5.0212
v  4.7295 -0.0300 4.7404
v  4.7295 -0.0212 5.0212
v  5.0212 -0.0212 4.7404
v  5.0173 -0.0173 5.0173
v  -5.0212 -0.0212 -4.7245
v  -4.7630 -0.0300 -4.7245
v  4.7295 -0.0300 -4.7245
v  5.0212 -0.0212 -4.7245
v  -5.0173 -0.0173 -5.0173
v  -4.7630 -0.0212 -5.0212
v  4.7295 -0.0212 -5.0212
v  5.0173 -0.0173 -5.0173
v  -5.0173 15.0173 5.0173
v  -4.7630 15.0212 5.0212
v  -4.7630 15.0300 4.7404
v  -5.0212 15.0212 4.7404
v  4.7295 15.0212 5.0212
v  4.7295 15.0300 4.7404
v  5.0173 15.0173 5.0173
v  5.0212 15.0212 4.7404
v  -4.7630 15.0300 -4.7245
v  -5.0212 15.0212 -4.7245
v  4.7295 15.0300 -4.7245
v  5.0212 15.0212 -4.7245
v  -4.7630 15.0212 -5.0212
v  -5.0173 15.0173 -5.0173
v  4.7295 15.0212 -5.0212
v  5.0173 15.0173 -5.0173
v  -4.7630 0.2233 5.0300
v  -5.0212 0.2233 5.0212
v  4.7295 0.2233 5.0300
v  5.0212 0.2233 5.0212
v  -4.7630 14.7247 5.0300
v  -5.0212 14.7247 5.0212
v  4.7295 14.7247 5.0300
v  5.0212 14.7247 5.0212
v  5.0300 0.2233 4.7404
v  5.0300 0.2233 -4.7245
v  5.0212 0.2233 -5.0212
v  5.0300 14.7247 4.7404
v  5.0300 14.7247 -4.7245
v  5.0212 14.7247 -5.0212
v  4.7295 0.2233 -5.0300
v  -4.7630 0.2233 -5.0300
v  -5.0212 0.2233 -5.0212
v  4.7295 14.7247 -5.0300
v  -4.7630 14.7247 -5.0300
v  -5.0212 14.7247 -5.0212
v  -5.0300 0.2233 -4.7245
v  -5.0300 0.2233 4.7404
v  -5.0300 14.7247 -4.7245
v  -5.0300 14.7247 4.7404
v  -4.7630 0.0300 4.7404
v  -4.9788 0.0212 4.7404
v  -4.9827 0.0173 4.9827
v  -4.7630 0.0212 4.9788
v  4.7295 0.0300 4.7404
v  4.7295 0.0212 4.9788
v  4.9788 0.0212 4.7404
v  4.9827 0.0173 4.9827
v  -4.7630 0.0300 -4.7245
v  -4.9788 0.0212 -4.7245
v  4.7295 0.0300 -4.7245
v  4.9788 0.0212 -4.7245
v  -4.7630 0.0212 -4.9788
v  -4.9827 0.0173 -4.9827
v  4.7295 0.0212 -4.9788
v  4.9827 0.0173 -4.9827
v  -4.7630 14.9700 4.7404
v  -4.7630 14.9788 4.9788
v  -4.9827 14.9827 4.9827
v  -4.9788 14.9788 4.7404
v  4.7295 14.9700 4.7404
v  4.7295 14.9788 4.9788
v  4.9788 14.9788 4.7404
v  4.9827 14.9827 4.9827
v  -4.7630 14.9700 -4.7245
v  -4.9788 14.9788 -4.7245
v  4.7295 14.9700 -4.7245
v  4.9788 14.9788 -4.7245
v  -4.7630 14.9788 -4.9788
v  -4.9827 14.9827 -4.9827
v  4.7295 14.9788 -4.9788
v  4.9827 14.9827 -4.9827
v  -4.7630 0.2233 4.9700
v  -4.9788 0.2233 4.9788
v  4.7295 0.2233 4.9700
v  4.9788 0.2233 4.9788
v  -4.7630 14.7247 4.9700
v  -4.9788 14.7247 4.9788
v  4.7295 14.7247 4.9700
v  4.9788 14.7247 4.9788
v  4.9700 0.2233 4.7404
v  4.9700 0.2233 -4.7245
v  4.9788 0.2233 -4.9788
v  4.9700 14.7247 4.7404
v  4.9700 14.7247 -4.7245
v  4.9788 14.7247 -4.9788
v  4.7295 0.2233 -4.9700
v  -4.7630 0.2233 -4.9700
v  -4.9788 0.2233 -4.9788
v  4.7295 14.7247 -4.9700
v  -4.7630 14.7247 -4.9700
v  -4.9788 14.7247 -4.9788
v  -4.9700 0.2233 -4.7245
v  -4.9700 0.2233 4.7404
v  -4.9700 14.7247 -4.7245
v  -4.9700 14.7247 4.7404
# 112 vertices

vn -0.0244 -0.9994 0.0234
vn -0.0340 -0.9994 0.0072
vn -0.0149 -0.9998 0.0134
vn -0.0079 -0.9995 0.0313
vn 0.0151 -0.9998 0.0156
vn 0.0110 -0.9996 0.0272
vn 0.0260 -0.9996 0.0113
vn 0.0137 -0.9998 0.0143
vn -0.0299 -0.9995 -0.0111
vn -0.0170 -0.9997 -0.0148
vn 0.0131 -0.9998 -0.0128
vn 0.0301 -0.9995 -0.0068
vn -0.0155 -0.9998 -0.0135
vn -0.0120 -0.9996 -0.0253
vn 0.0069 -0.9995 -0.0296
vn 0.0219 -0.9995 -0.0217
vn -0.0244 0.9994 0.0234
vn -0.0079 0.9995 0.0313
vn -0.0149 0.9998 0.0134
vn -0.0340 0.9994 0.0072
vn 0.0110 0.9996 0.0272
vn 0.0151 0.9998 0.0156
vn 0.0137 0.9998 0.0143
vn 0.0260 0.9996 0.0113
vn -0.0170 0.9997 -0.0148
vn -0.0299 0.9995 -0.0111
vn 0.0131 0.9998 -0.0128
vn 0.0301 0.9995 -0.0068
vn -0.0120 0.9996 -0.0253
vn -0.0155 0.9998 -0.0135
vn 0.0069 0.9995 -0.0296
vn 0.0219 0.9995 -0.0217
vn -0.0253 -0.0260 0.9993
vn -0.0079 -0.0359 0.9993
vn -0.0147 -0.0157 0.9998
vn -0.0340 -0.0083 0.9994
vn 0.0114 -0.0317 0.9994
vn 0.0151 -0.0180 0.9997
vn 0.0137 -0.0164 0.9998
vn 0.0256 -0.0125 0.9996
vn -0.0170 0.0148 0.9997
vn -0.0299 0.0111 0.9995
vn 0.0131 0.0128 0.9998
vn 0.0301 0.0068 0.9995
vn -0.0120 0.0253 0.9996
vn -0.0155 0.0135 0.9998
vn 0.0069 0.0296 0.9995
vn 0.0219 0.0217 0.9995
vn 0.9994 -0.0255 0.0237
vn 0.9993 -0.0359 0.0072
vn 0.9998 -0.0158 0.0134
vn 0.9995 -0.0083 0.0313
vn 0.9994 -0.0317 -0.0113
vn 0.9997 -0.0180 -0.0148
vn 0.9998 -0.0164 -0.0135
vn 0.9996 -0.0125 -0.0252
vn 0.9998 0.0148 0.0156
vn 0.9996 0.0109 0.0272
vn 0.9998 0.0128 -0.0128
vn 0.9995 0.0068 -0.0296
vn 0.9996 0.0255 0.0112
vn 0.9998 0.0135 0.0142
vn 0.9995 0.0296 -0.0068
vn 0.9995 0.0217 -0.0217
vn 0.0230 -0.0252 -0.9994
vn 0.0070 -0.0359 -0.9993
vn 0.0128 -0.0158 -0.9998
vn 0.0301 -0.0083 -0.9995
vn -0.0125 -0.0313 -0.9994
vn -0.0170 -0.0180 -0.9997
vn -0.0156 -0.0164 -0.9997
vn -0.0293 -0.0129 -0.9995
vn 0.0151 0.0148 -0.9998
vn 0.0261 0.0108 -0.9996
vn -0.0149 0.0127 -0.9998
vn -0.0340 0.0068 -0.9994
vn 0.0109 0.0256 -0.9996
vn 0.0137 0.0135 -0.9998
vn -0.0078 0.0296 -0.9995
vn -0.0241 0.0224 -0.9995
vn -0.9994 -0.0251 -0.0227
vn -0.9993 -0.0359 -0.0069
vn -0.9998 -0.0159 -0.0126
vn -0.9995 -0.0083 -0.0296
vn -0.9994 -0.0315 0.0118
vn -0.9997 -0.0180 0.0156
vn -0.9998 -0.0164 0.0143
vn -0.9996 -0.0126 0.0267
vn -0.9998 0.0148 -0.0148
vn -0.9996 0.0108 -0.0256
vn -0.9998 0.0128 0.0136
vn -0.9995 0.0068 0.0313
vn -0.9996 0.0256 -0.0108
vn -0.9998 0.0135 -0.0135
vn -0.9995 0.0296 0.0072
vn -0.9995 0.0219 0.0226
vn -0.0176 0.9997 0.0156
vn -0.0407 0.9991 0.0077
vn -0.0281 0.9992 0.0268
vn -0.0086 0.9993 0.0368
vn 0.0176 0.9997 0.0184
vn 0.0127 0.9994 0.0317
vn 0.0300 0.9995 0.0130
vn 0.0151 0.9998 0.0158
vn -0.0203 0.9996 -0.0173
vn -0.0354 0.9993 -0.0129
vn 0.0151 0.9998 -0.0147
vn 0.0352 0.9994 -0.0073
vn -0.0140 0.9995 -0.0290
vn -0.0175 0.9997 -0.0148
vn 0.0075 0.9994 -0.0345
vn 0.0249 0.9994 -0.0247
vn -0.0176 -0.9997 0.0156
vn -0.0086 -0.9993 0.0368
vn -0.0281 -0.9992 0.0268
vn -0.0407 -0.9991 0.0077
vn 0.0176 -0.9997 0.0184
vn 0.0127 -0.9994 0.0316
vn 0.0300 -0.9995 0.0130
vn 0.0151 -0.9998 0.0158
vn -0.0203 -0.9996 -0.0173
vn -0.0354 -0.9993 -0.0129
vn 0.0151 -0.9998 -0.0147
vn 0.0352 -0.9994 -0.0073
vn -0.0140 -0.9995 -0.0290
vn -0.0175 -0.9997 -0.0148
vn 0.0075 -0.9994 -0.0345
vn 0.0249 -0.9994 -0.0247
vn -0.0173 -0.0187 -0.9997
vn -0.0085 -0.0434 -0.9990
vn -0.0293 -0.0303 -0.9991
vn -0.0407 -0.0091 -0.9991
vn 0.0176 -0.0217 -0.9996
vn 0.0133 -0.0380 -0.9992
vn 0.0294 -0.0147 -0.9995
vn 0.0151 -0.0186 -0.9997
vn -0.0203 0.0173 -0.9996
vn -0.0354 0.0129 -0.9993
vn 0.0151 0.0147 -0.9998
vn 0.0352 0.0073 -0.9994
vn -0.0140 0.0290 -0.9995
vn -0.0174 0.0148 -0.9997
vn 0.0075 0.0346 -0.9994
vn 0.0249 0.0247 -0.9994
vn -0.9997 -0.0189 0.0155
vn -0.9990 -0.0434 0.0077
vn -0.9992 -0.0295 0.0272
vn -0.9993 -0.0092 0.0368
vn -0.9996 -0.0217 -0.0173
vn -0.9992 -0.0380 -0.0131
vn -0.9995 -0.0146 -0.0288
vn -0.9997 -0.0186 -0.0148
vn -0.9997 0.0173 0.0184
vn -0.9994 0.0126 0.0317
vn -0.9994 0.0073 -0.0345
vn -0.9995 0.0294 0.0130
vn -0.9998 0.0148 0.0158
vn -0.9994 0.0346 -0.0073
vn -0.9994 0.0246 -0.0245
vn 0.0147 -0.0190 0.9997
vn 0.0074 -0.0434 0.9990
vn 0.0263 -0.0292 0.9992
vn 0.0352 -0.0092 0.9993
vn -0.0203 -0.0217 0.9996
vn -0.0148 -0.0374 0.9992
vn -0.0345 -0.0153 0.9993
vn -0.0174 -0.0186 0.9997
vn 0.0176 0.0173 0.9997
vn 0.0302 0.0124 0.9995
vn -0.0177 0.0145 0.9997
vn -0.0407 0.0073 0.9991
vn 0.0125 0.0295 0.9995
vn 0.0151 0.0149 0.9998
vn -0.0086 0.0346 0.9994
vn -0.0277 0.0255 0.9993
vn 0.9997 -0.0190 -0.0144
vn 0.9990 -0.0434 -0.0072
vn 0.9992 -0.0290 -0.0259
vn 0.9994 -0.0092 -0.0345
vn 0.9996 -0.0217 0.0184
vn 0.9992 -0.0378 0.0137
vn 0.9994 -0.0149 0.0309
vn 0.9997 -0.0186 0.0158
vn 0.9997 0.0173 -0.0173
vn 0.9995 0.0124 -0.0295
vn 0.9998 0.0147 0.0159
vn 0.9993 0.0073 0.0368
vn 0.9995 0.0296 -0.0124
vn 0.9998 0.0149 -0.0149
vn 0.9994 0.0346 0.0078
vn 0.9994 0.0249 0.0257
# 191 vertex normals

vt 0.3507 0.8813 0.0000
vt 0.3503 0.8719 0.0000
vt 0.3594 0.8719 0.0000
vt 0.3594 0.8817 0.0000
vt 0.6404 0.8719 0.0000
vt 0.6404 0.8817 0.0000
vt 0.6505 0.8719 0.0000
vt 0.6501 0.8813 0.0000
vt 0.3503 0.5917 0.0000
vt 0.3594 0.5917 0.0000
vt 0.6404 0.5917 0.0000
vt 0.6505 0.5917 0.0000
vt 0.3507 0.5819 0.0000
vt 0.3594 0.5815 0.0000
vt 0.6404 0.5815 0.0000
vt 0.6501 0.5819 0.0000
vt 0.3473 0.5852 0.0000
vt 0.3560 0.5848 0.0000
vt 0.3560 0.5946 0.0000
vt 0.3469 0.5946 0.0000
vt 0.6370 0.5848 0.0000
vt 0.6370 0.5946 0.0000
vt 0.6467 0.5852 0.0000
vt 0.6471 0.5946 0.0000
vt 0.3560 0.8748 0.0000
vt 0.3469 0.8748 0.0000
vt 0.6370 0.8748 0.0000
vt 0.6471 0.8748 0.0000
vt 0.3560 0.8850 0.0000
vt 0.3473 0.8847 0.0000
vt 0.6370 0.8850 0.0000
vt 0.6467 0.8847 0.0000
vt 0.2747 0.5451 0.0000
vt 0.2743 0.5364 0.0000
vt 0.2786 0.5408 0.0000
vt 0.2830 0.5455 0.0000
vt 0.2743 0.2548 0.0000
vt 0.2786 0.2523 0.0000
vt 0.2747 0.2451 0.0000
vt 0.2786 0.2420 0.0000
vt 0.7193 0.5408 0.0000
vt 0.7131 0.5455 0.0000
vt 0.7193 0.2523 0.0000
vt 0.7193 0.2420 0.0000
vt 0.7234 0.5364 0.0000
vt 0.7230 0.5451 0.0000
vt 0.7234 0.2548 0.0000
vt 0.7230 0.2451 0.0000
vt 0.2799 0.5384 0.0000
vt 0.2795 0.5290 0.0000
vt 0.2839 0.5333 0.0000
vt 0.2839 0.5433 0.0000
vt 0.2795 0.2483 0.0000
vt 0.2830 0.2457 0.0000
vt 0.2799 0.2384 0.0000
vt 0.2830 0.2351 0.0000
vt 0.7246 0.5333 0.0000
vt 0.7246 0.5433 0.0000
vt 0.7237 0.2457 0.0000
vt 0.7237 0.2351 0.0000
vt 0.7286 0.5290 0.0000
vt 0.7282 0.5384 0.0000
vt 0.7286 0.2483 0.0000
vt 0.7282 0.2384 0.0000
vt 0.2769 0.5475 0.0000
vt 0.2765 0.5378 0.0000
vt 0.2809 0.5423 0.0000
vt 0.2809 0.5527 0.0000
vt 0.2765 0.2562 0.0000
vt 0.2809 0.2538 0.0000
vt 0.2769 0.2475 0.0000
vt 0.2852 0.2471 0.0000
vt 0.7216 0.5423 0.0000
vt 0.7216 0.5527 0.0000
vt 0.7216 0.2538 0.0000
vt 0.7154 0.2471 0.0000
vt 0.7256 0.5378 0.0000
vt 0.7253 0.5475 0.0000
vt 0.7256 0.2562 0.0000
vt 0.7253 0.2475 0.0000
vt 0.2757 0.5443 0.0000
vt 0.2753 0.5345 0.0000
vt 0.2840 0.5345 0.0000
vt 0.2840 0.5447 0.0000
vt 0.2753 0.2537 0.0000
vt 0.2840 0.2537 0.0000
vt 0.2757 0.2443 0.0000
vt 0.2840 0.2439 0.0000
vt 0.7142 0.5345 0.0000
vt 0.7142 0.5447 0.0000
vt 0.7142 0.2537 0.0000
vt 0.7142 0.2439 0.0000
vt 0.7244 0.5345 0.0000
vt 0.7240 0.5443 0.0000
vt 0.7244 0.2537 0.0000
vt 0.7240 0.2443 0.0000
vt 0.3629 0.5878 0.0000
vt 0.3580 0.5878 0.0000
vt 0.3576 0.5818 0.0000
vt 0.3629 0.5822 0.0000
vt 0.6439 0.5878 0.0000
vt 0.6439 0.5822 0.0000
vt 0.6498 0.5878 0.0000
vt 0.6502 0.5818 0.0000
vt 0.3629 0.8680 0.0000
vt 0.3580 0.8680 0.0000
vt 0.6439 0.8680 0.0000
vt 0.6498 0.8680 0.0000
vt 0.3629 0.8741 0.0000
vt 0.3576 0.8745 0.0000
vt 0.6439 0.8741 0.0000
vt 0.6502 0.8745 0.0000
vt 0.3592 0.8721 0.0000
vt 0.3592 0.8777 0.0000
vt 0.3539 0.8781 0.0000
vt 0.3543 0.8721 0.0000
vt 0.6402 0.8721 0.0000
vt 0.6402 0.8777 0.0000
vt 0.6462 0.8721 0.0000
vt 0.6465 0.8781 0.0000
vt 0.3592 0.5919 0.0000
vt 0.3543 0.5919 0.0000
vt 0.6402 0.5919 0.0000
vt 0.6462 0.5919 0.0000
vt 0.3592 0.5859 0.0000
vt 0.3539 0.5855 0.0000
vt 0.6402 0.5859 0.0000
vt 0.6465 0.5855 0.0000
vt 0.2838 0.2447 0.0000
vt 0.2835 0.2473 0.0000
vt 0.2832 0.2420 0.0000
vt 0.2881 0.2424 0.0000
vt 0.2838 0.5331 0.0000
vt 0.2835 0.5289 0.0000
vt 0.2838 0.5392 0.0000
vt 0.2832 0.5352 0.0000
vt 0.7245 0.2447 0.0000
vt 0.7182 0.2424 0.0000
vt 0.7245 0.5331 0.0000
vt 0.7245 0.5392 0.0000
vt 0.7243 0.2473 0.0000
vt 0.7247 0.2420 0.0000
vt 0.7243 0.5289 0.0000
vt 0.7247 0.5352 0.0000
vt 0.2822 0.2451 0.0000
vt 0.2820 0.2477 0.0000
vt 0.2816 0.2417 0.0000
vt 0.2822 0.2393 0.0000
vt 0.2822 0.5327 0.0000
vt 0.2820 0.5284 0.0000
vt 0.2822 0.5389 0.0000
vt 0.2816 0.5349 0.0000
vt 0.7229 0.2451 0.0000
vt 0.7229 0.2393 0.0000
vt 0.7229 0.5327 0.0000
vt 0.7229 0.5389 0.0000
vt 0.7227 0.2477 0.0000
vt 0.7231 0.2417 0.0000
vt 0.7227 0.5284 0.0000
vt 0.7231 0.5349 0.0000
vt 0.2784 0.2563 0.0000
vt 0.2783 0.2586 0.0000
vt 0.2779 0.2523 0.0000
vt 0.2784 0.2502 0.0000
vt 0.2784 0.5448 0.0000
vt 0.2783 0.5402 0.0000
vt 0.2828 0.5451 0.0000
vt 0.2779 0.5455 0.0000
vt 0.7191 0.2563 0.0000
vt 0.7191 0.2502 0.0000
vt 0.7191 0.5448 0.0000
vt 0.7130 0.5451 0.0000
vt 0.7191 0.2586 0.0000
vt 0.7194 0.2523 0.0000
vt 0.7191 0.5402 0.0000
vt 0.7194 0.5455 0.0000
vt 0.2828 0.2554 0.0000
vt 0.2783 0.2554 0.0000
vt 0.2779 0.2490 0.0000
vt 0.2828 0.2494 0.0000
vt 0.2828 0.5362 0.0000
vt 0.2783 0.5362 0.0000
vt 0.2828 0.5418 0.0000
vt 0.2779 0.5422 0.0000
vt 0.7130 0.2554 0.0000
vt 0.7130 0.2494 0.0000
vt 0.7130 0.5362 0.0000
vt 0.7130 0.5418 0.0000
vt 0.7191 0.2554 0.0000
vt 0.7194 0.2490 0.0000
vt 0.7191 0.5362 0.0000
vt 0.7194 0.5422 0.0000
# 192 texture coords

g Box001
f 1/1/1 2/2/2 3/3/3 4/4/4 
f 4/4/4 3/3/3 5/5/5 6/6/6 
f 6/6/6 5/5/5 7/7/7 8/8/8 
f 2/2/2 9/9/9 10/10/10 3/3/3 
f 3/3/3 10/10/10 11/11/11 5/5/5 
f 5/5/5 11/11/11 12/12/12 7/7/7 
f 9/9/9 13/13/13 14/14/14 10/10/10 
f 10/10/10 14/14/14 15/15/15 11/11/11 
f 11/11/11 15/15/15 16/16/16 12/12/12 
f 17/17/17 18/18/18 19/19/19 20/20/20 
f 18/18/18 21/21/21 22/22/22 19/19/19 
f 21/21/21 23/23/23 24/24/24 22/22/22 
f 20/20/20 19/19/19 25/25/25 26/26/26 
f 19/19/19 22/22/22 27/27/27 25/25/25 
f 22/22/22 24/24/24 28/28/28 27/27/27 
f 26/26/26 25/25/25 29/29/29 30/30/30 
f 25/25/25 27/27/27 31/31/31 29/29/29 
f 27/27/27 28/28/28 32/32/32 31/31/31 
f 1/33/33 4/34/34 33/35/35 34/36/36 
f 4/34/34 6/37/37 35/38/38 33/35/35 
f 6/37/37 8/39/39 36/40/40 35/38/38 
f 34/36/36 33/35/35 37/41/41 38/42/42 
f 33/35/35 35/38/38 39/43/43 37/41/41 
f 35/38/38 36/40/40 40/44/44 39/43/43 
f 38/42/42 37/41/41 18/45/45 17/46/46 
f 37/41/41 39/43/43 21/47/47 18/45/45 
f 39/43/43 40/44/44 23/48/48 21/47/47 
f 8/49/49 7/50/50 41/51/51 36/52/52 
f 7/50/50 12/53/53 42/54/54 41/51/51 
f 12/53/53 16/55/55 43/56/56 42/54/54 
f 36/52/52 41/51/51 44/57/57 40/58/58 
f 41/51/51 42/54/54 45/59/59 44/57/57 
f 42/54/54 43/56/56 46/60/60 45/59/59 
f 40/58/58 44/57/57 24/61/61 23/62/62 
f 44/57/57 45/59/59 28/63/63 24/61/61 
f 45/59/59 46/60/60 32/64/64 28/63/63 
f 16/65/65 15/66/66 47/67/67 43/68/68 
f 15/66/66 14/69/69 48/70/70 47/67/67 
f 14/69/69 13/71/71 49/72/72 48/70/70 
f 43/68/68 47/67/67 50/73/73 46/74/74 
f 47/67/67 48/70/70 51/75/75 50/73/73 
f 48/70/70 49/72/72 52/76/76 51/75/75 
f 46/74/74 50/73/73 31/77/77 32/78/78 
f 50/73/73 51/75/75 29/79/79 31/77/77 
f 51/75/75 52/76/76 30/80/80 29/79/79 
f 13/81/81 9/82/82 53/83/83 49/84/84 
f 9/82/82 2/85/85 54/86/86 53/83/83 
f 2/85/85 1/87/87 34/88/88 54/86/86 
f 49/84/84 53/83/83 55/89/89 52/90/90 
f 53/83/83 54/86/86 56/91/91 55/89/89 
f 54/86/86 34/88/88 38/92/92 56/91/91 
f 52/90/90 55/89/89 26/93/93 30/94/94 
f 55/89/89 56/91/91 20/95/95 26/93/93 
f 56/91/91 38/92/92 17/96/96 20/95/95 
f 57/97/97 58/98/98 59/99/99 60/100/100 
f 61/101/101 57/97/97 60/100/100 62/102/102 
f 63/103/103 61/101/101 62/102/102 64/104/104 
f 65/105/105 66/106/106 58/98/98 57/97/97 
f 67/107/107 65/105/105 57/97/97 61/101/101 
f 68/108/108 67/107/107 61/101/101 63/103/103 
f 69/109/109 70/110/110 66/106/106 65/105/105 
f 71/111/111 69/109/109 65/105/105 67/107/107 
f 72/112/112 71/111/111 67/107/107 68/108/108 
f 73/113/113 74/114/114 75/115/115 76/116/116 
f 77/117/117 78/118/118 74/114/114 73/113/113 
f 79/119/119 80/120/120 78/118/118 77/117/117 
f 81/121/121 73/113/113 76/116/116 82/122/122 
f 83/123/123 77/117/117 73/113/113 81/121/121 
f 84/124/124 79/119/119 77/117/117 83/123/123 
f 85/125/125 81/121/121 82/122/122 86/126/126 
f 87/127/127 83/123/123 81/121/121 85/125/125 
f 88/128/128 84/124/124 83/123/123 87/127/127 
f 89/129/129 60/130/130 59/131/131 90/132/132 
f 91/133/133 62/134/134 60/130/130 89/129/129 
f 92/135/135 64/136/136 62/134/134 91/133/133 
f 93/137/137 89/129/129 90/132/132 94/138/138 
f 95/139/139 91/133/133 89/129/129 93/137/137 
f 96/140/140 92/135/135 91/133/133 95/139/139 
f 74/141/141 93/137/137 94/138/138 75/142/142 
f 78/143/143 95/139/139 93/137/137 74/141/141 
f 80/144/144 96/140/140 95/139/139 78/143/143 
f 97/145/145 63/146/146 64/147/147 92/148/148 
f 98/149/149 68/150/150 63/146/146 97/145/145 
f 99/151/151 72/152/152 68/150/150 98/149/149 
f 100/153/153 97/145/145 92/148/148 96/154/154 
f 101/155/89 98/149/149 97/145/145 100/153/153 
f 102/156/155 99/151/151 98/149/149 101/155/89 
f 79/157/156 100/153/153 96/154/154 80/158/157 
f 84/159/158 101/155/89 100/153/153 79/157/156 
f 88/160/159 102/156/155 101/155/89 84/159/158 
f 103/161/160 71/162/161 72/163/162 99/164/163 
f 104/165/164 69/166/165 71/162/161 103/161/160 
f 105/167/166 70/168/167 69/166/165 104/165/164 
f 106/169/168 103/161/160 99/164/163 102/170/169 
f 107/171/170 104/165/164 103/161/160 106/169/168 
f 108/172/171 105/167/166 104/165/164 107/171/170 
f 87/173/172 106/169/168 102/170/169 88/174/173 
f 85/175/174 107/171/170 106/169/168 87/173/172 
f 86/176/175 108/172/171 107/171/170 85/175/174 
f 109/177/176 66/178/177 70/179/178 105/180/179 
f 110/181/180 58/182/181 66/178/177 109/177/176 
f 90/183/182 59/184/183 58/182/181 110/181/180 
f 111/185/184 109/177/176 105/180/179 108/186/185 
f 112/187/186 110/181/180 109/177/176 111/185/184 
f 94/188/187 90/183/182 110/181/180 112/187/186 
f 82/189/188 111/185/184 108/186/185 86/190/189 
f 76/191/190 112/187/186 111/185/184 82/189/188 
f 75/192/191 94/188/187 112/187/186 76/191/190 
# 108 polygons

